<svg xmlns="http://www.w3.org/2000/svg" xmlns:xlink="http://www.w3.org/1999/xlink" width="80" height="61" version="1.1" viewBox="0 0 80 61"><title>Untitled</title><desc>Created with Sketch.</desc><g id="Page-1" fill="none" fill-rule="evenodd" stroke="none" stroke-width="1"><rect id="Rectangle-21" width="76" height="50" x="2" y="1" fill="#FFF" stroke="#979797" stroke-width="2" rx="3"/><rect id="Rectangle-22" width="16" height="2" x="10" y="9" fill="#585858" opacity=".2"/><rect id="Rectangle-22-Copy" width="60" height="2" x="10" y="15" fill="#585858" opacity=".2"/><rect id="Rectangle-22-Copy-2" width="60" height="2" x="10" y="21" fill="#585858" opacity=".2"/><rect id="Rectangle-22-Copy-3" width="60" height="2" x="10" y="27" fill="#585858" opacity=".2"/><rect id="Rectangle-22-Copy-4" width="60" height="2" x="10" y="33" fill="#585858" opacity=".2"/><path id="Rectangle-19" fill="#4F4F4F" d="M77.3153812,22.3423094 C78.7980552,21.6009724 80,22.3423094 80,24.0065012 L80,57.9934988 C80,59.6539436 78.6616553,61 77.0099126,61 L2.99008742,61 C1.33870774,61 1.19297385,60.4035131 2.68461881,59.6576906 L77.3153812,22.3423094 Z"/><path id="Rectangle-19-Copy" fill="#585858" d="M0,24.0065012 C0,22.3460564 1.19297385,21.5964869 2.68461881,22.3423094 L77.3153812,59.6576906 C78.7980552,60.3990276 78.6616553,61 77.0099126,61 L2.99008742,61 C1.33870774,61 0,59.6576906 0,57.9934988 L0,24.0065012 Z"/></g></svg>