<svg xmlns="http://www.w3.org/2000/svg" xmlns:svg="http://www.w3.org/2000/svg" id="svg2" width="120" height="120" version="1.1" viewBox="0 0 120 120"><metadata id="metadata18"/><title id="title4">Artboard 1</title><desc id="desc6">Created with Sketch.</desc><g id="Page-1" transform="translate(0.50847458,7.627119)" style="fill-rule:evenodd;stroke:none;stroke-width:1"><g id="Artboard-1" fill="currentColor"><circle id="Oval-1" cx="36" cy="41" r="18"/><circle id="Oval-1-Copy" cx="84" cy="41" r="18"/><path id="Path-1-Copy-2" d="m 72,97.041748 44,0 L 116,85 c 0,0 0,-19 -32,-19 -9.06502,0 -15.561747,1.524724 -20.217828,3.710318 1.214568,0.986788 2.306029,2.05955 3.277473,3.213139 2.135429,2.535822 3.518643,5.273433 4.291509,8.026767 0.276063,0.983477 0.45577,1.908217 0.557712,2.755611 C 71.975452,84.259334 72,84.696591 72,85 l 0,12.041748 z"/><path id="Path-1" d="m 4,97.041748 64,0 L 68,85 C 68,85 68,66 36,66 4,66 4.0041989,85 4.0041989,85 L 4,97.041748 Z"/></g></g></svg>