<svg xmlns="http://www.w3.org/2000/svg" xmlns:xlink="http://www.w3.org/1999/xlink" width="16" height="16" version="1.1" viewBox="0 0 16 16"><title>Artboard 1 Copy 2</title><desc>Created with Sketch.</desc><g id="Page-1" fill="none" fill-rule="evenodd" stroke="none" stroke-width="1"><g id="Artboard-1-Copy-2" fill="currentColor"><g id="Shape-+-Shape-Copy-28"><path id="Shape" d="M6,10 L6,10 C8.209139,10 10,8.209139 10,6 C10,3.790861 8.209139,2 6,2 C3.790861,2 2,3.790861 2,6 C2,8.209139 3.790861,10 6,10 L6,10 Z M6,12 L6,12 C2.6862915,12 0,9.3137085 0,6 C0,2.6862915 2.6862915,0 6,0 C9.3137085,0 12,2.6862915 12,6 C12,9.3137085 9.3137085,12 6,12 L6,12 Z"/></g><path id="Shape" d="M9.29289322,10.7071068 L14.2426407,15.6568542 L15.6568542,14.2426407 L10.7071068,9.29289322 L9.29289322,10.7071068 L9.29289322,10.7071068 Z"/></g></g></svg>